<svg id="normal" width="none" height="none" viewBox="0 0 34 34" fill="" stroke-width="0.3" xmlns="http://www.w3.org/2000/svg">
<path opacity="0.2" d="M29.75 17C29.7519 18.7881 29.3767 20.5565 28.649 22.1898C27.9213 23.8231 26.8573 25.2845 25.5266 26.4788C24.7265 24.9051 23.5064 23.5836 22.0014 22.6607C20.4965 21.7378 18.7654 21.2495 17 21.25C18.0507 21.25 19.0778 20.9384 19.9515 20.3547C20.8251 19.7709 21.506 18.9412 21.9081 17.9705C22.3102 16.9998 22.4154 15.9316 22.2104 14.9011C22.0054 13.8706 21.4995 12.924 20.7565 12.181C20.0135 11.438 19.0669 10.9321 18.0364 10.7271C17.0059 10.5221 15.9377 10.6273 14.967 11.0294C13.9963 11.4315 13.1666 12.1124 12.5828 12.986C11.9991 13.8597 11.6875 14.8868 11.6875 15.9375C11.6875 17.3465 12.2472 18.6977 13.2435 19.694C14.2398 20.6903 15.591 21.25 17 21.25C15.2346 21.2495 13.5035 21.7378 11.9986 22.6607C10.4936 23.5836 9.27351 24.9051 8.47344 26.4788C6.89331 25.0575 5.69353 23.2638 4.9832 21.2607C4.27288 19.2576 4.07455 17.1088 4.40624 15.0095C4.73793 12.9102 5.58912 10.9272 6.88241 9.2407C8.1757 7.5542 9.87006 6.21774 11.8114 5.35286C13.7528 4.48797 15.8795 4.1221 17.9983 4.28851C20.1171 4.45491 22.1606 5.14832 23.9432 6.30568C25.7257 7.46304 27.1906 9.04763 28.2048 10.9154C29.2189 12.7831 29.7501 14.8747 29.75 17Z" fill=""/>
<path d="M17 3.1875C14.2681 3.1875 11.5976 3.99759 9.32618 5.51533C7.05473 7.03306 5.28435 9.19028 4.23891 11.7142C3.19348 14.2381 2.91994 17.0153 3.4529 19.6947C3.98586 22.374 5.30137 24.8352 7.23309 26.7669C9.1648 28.6986 11.6259 30.0141 14.3053 30.5471C16.9847 31.0801 19.7619 30.8065 22.2858 29.7611C24.8097 28.7156 26.9669 26.9453 28.4847 24.6738C30.0024 22.4024 30.8125 19.7319 30.8125 17C30.8086 13.3379 29.3521 9.82687 26.7626 7.23736C24.1731 4.64785 20.6621 3.19137 17 3.1875ZM9.83875 26.2305C10.6074 25.0284 11.6663 24.0391 12.9178 23.3538C14.1693 22.6686 15.5732 22.3094 17 22.3094C18.4268 22.3094 19.8307 22.6686 21.0822 23.3538C22.3337 24.0391 23.3926 25.0284 24.1612 26.2305C22.1137 27.8229 19.5939 28.6874 17 28.6874C14.4061 28.6874 11.8863 27.8229 9.83875 26.2305ZM12.75 15.9375C12.75 15.0969 12.9993 14.2752 13.4663 13.5763C13.9332 12.8774 14.597 12.3327 15.3736 12.011C16.1502 11.6893 17.0047 11.6052 17.8291 11.7692C18.6536 11.9331 19.4108 12.3379 20.0052 12.9323C20.5996 13.5267 21.0043 14.2839 21.1683 15.1084C21.3323 15.9328 21.2482 16.7873 20.9265 17.5639C20.6048 18.3405 20.0601 19.0042 19.3612 19.4712C18.6623 19.9382 17.8406 20.1875 17 20.1875C15.8728 20.1875 14.7918 19.7397 13.9948 18.9427C13.1978 18.1457 12.75 17.0647 12.75 15.9375ZM25.7337 24.7576C24.5488 23.0404 22.8825 21.7119 20.9445 20.9392C21.9855 20.1193 22.7452 18.9953 23.1178 17.7237C23.4904 16.452 23.4575 15.0959 23.0236 13.8438C22.5897 12.5917 21.7764 11.5059 20.6969 10.7375C19.6173 9.96903 18.3251 9.55609 17 9.55609C15.6749 9.55609 14.3827 9.96903 13.3031 10.7375C12.2235 11.5059 11.4103 12.5917 10.9764 13.8438C10.5425 15.0959 10.5096 16.452 10.8822 17.7237C11.2548 18.9953 12.0145 20.1193 13.0555 20.9392C11.1175 21.7119 9.45124 23.0404 8.26625 24.7576C6.76888 23.0737 5.79019 20.9929 5.44803 18.7657C5.10587 16.5386 5.41483 14.2599 6.3377 12.2043C7.26058 10.1486 8.75802 8.40355 10.6497 7.17923C12.5414 5.95491 14.7467 5.30353 17 5.30353C19.2533 5.30353 21.4586 5.95491 23.3503 7.17923C25.242 8.40355 26.7394 10.1486 27.6623 12.2043C28.5852 14.2599 28.8941 16.5386 28.552 18.7657C28.2098 20.9929 27.2311 23.0737 25.7337 24.7576Z" fill=""/>
</svg>