<svg width="50" height="50" viewBox="0 0 50 50" fill="none" xmlns="http://www.w3.org/2000/svg">
<path d="M40 10L25 25M40 10V18.4375M40 10H31.5625M38.125 25.9375V34C38.125 36.1002 38.125 37.1504 37.7162 37.9525C37.3568 38.6581 36.7831 39.2318 36.0775 39.5912C35.2754 40 34.2252 40 32.125 40H16C13.8998 40 12.8497 40 12.0475 39.5912C11.3419 39.2318 10.7682 38.6581 10.4087 37.9525C10 37.1504 10 36.1002 10 34V17.875C10 15.7748 10 14.7247 10.4087 13.9225C10.7682 13.2169 11.3419 12.6432 12.0475 12.2837C12.8497 11.875 13.8998 11.875 16 11.875H24.0625" stroke="white" stroke-width="4" stroke-linecap="round" stroke-linejoin="round"/>
</svg>
