<svg width="392" height="358" viewBox="0 0 392 358" fill="none" xmlns="http://www.w3.org/2000/svg">
<g filter="url(#filter0_d_2262_89)">
<path d="M10.9033 54.6138C21.6404 -26.1388 230.838 4.37463 309.545 68.6945C388.252 133.014 420.829 212.217 310.947 285.132C201.066 358.047 25.5776 375.961 57.4536 264.82C89.3295 153.679 0.166164 135.366 10.9033 54.6138Z" fill="#448EF3"/>
<path d="M51.3457 14.6494C73.5147 7.22063 102.976 5.46697 134.647 8.24805C198.009 13.8119 269.767 37.4794 308.912 69.4688C348.208 101.582 375.772 137.248 379.974 173.805C384.161 210.239 365.168 247.952 310.395 284.299C255.591 320.666 184.439 343.296 131.047 342.997C104.333 342.848 82.26 336.96 68.8457 324.404C55.5147 311.926 50.515 292.641 58.415 265.096C66.4222 237.177 66.8423 215.031 63.0986 196.248C59.3569 177.475 51.4674 162.127 42.9648 147.811C25.9273 119.122 6.58235 94.6998 11.8945 54.7461C14.5086 35.0862 29.1858 22.0753 51.3457 14.6494Z" stroke="#101828" stroke-opacity="0.2" stroke-width="2"/>
</g>
<defs>
<filter id="filter0_d_2262_89" x="0" y="0" width="391.532" height="358" filterUnits="userSpaceOnUse" color-interpolation-filters="sRGB">
<feFlood flood-opacity="0" result="BackgroundImageFix"/>
<feColorMatrix in="SourceAlpha" type="matrix" values="0 0 0 0 0 0 0 0 0 0 0 0 0 0 0 0 0 0 127 0" result="hardAlpha"/>
<feOffset dy="4"/>
<feGaussianBlur stdDeviation="5"/>
<feComposite in2="hardAlpha" operator="out"/>
<feColorMatrix type="matrix" values="0 0 0 0 0.094277 0 0 0 0 0.165769 0 0 0 0 0.297115 0 0 0 0.4 0"/>
<feBlend mode="normal" in2="BackgroundImageFix" result="effect1_dropShadow_2262_89"/>
<feBlend mode="normal" in="SourceGraphic" in2="effect1_dropShadow_2262_89" result="shape"/>
</filter>
</defs>
</svg>
