<svg width="50" height="50" viewBox="0 0 50 50" fill="none" xmlns="http://www.w3.org/2000/svg">
<path d="M8.33325 39.5833V12.9167C8.33325 10.5831 8.33325 9.41633 8.7874 8.52504C9.18686 7.74102 9.82427 7.1036 10.6083 6.70415C11.4996 6.25 12.6664 6.25 14.9999 6.25H34.9999C37.3335 6.25 38.5003 6.25 39.3916 6.70415C40.1755 7.1036 40.813 7.74102 41.2124 8.52504C41.6666 9.41633 41.6666 10.5831 41.6666 12.9167V35.4167H12.4999C10.1987 35.4167 8.33325 37.2821 8.33325 39.5833ZM8.33325 39.5833C8.33325 41.8846 10.1987 43.75 12.4999 43.75H41.6666M18.7499 14.5833H31.2499M18.7499 22.9167H31.2499M39.5833 35.4167V43.75" stroke="#448EF3" stroke-width="4" stroke-linecap="round" stroke-linejoin="round"/>
</svg>
