<svg width="45" height="45" viewBox="0 0 45 45" fill="none" xmlns="http://www.w3.org/2000/svg">
<path d="M22.5 35C20.7917 35 19.1771 34.6719 17.6562 34.0156C16.1354 33.3594 14.8073 32.4635 13.6719 31.3281C12.5365 30.1927 11.6406 28.8646 10.9844 27.3438C10.3281 25.8229 10 24.2083 10 22.5C10 20.7708 10.3385 19.1458 11.0156 17.625C11.6927 16.1042 12.6094 14.7812 13.7656 13.6562C14.9219 12.5312 16.2708 11.6406 17.8125 10.9844C19.3542 10.3281 21 10 22.75 10C24.4167 10 25.9896 10.2865 27.4688 10.8594C28.9479 11.4323 30.2448 12.224 31.3594 13.2344C32.474 14.2448 33.3594 15.4427 34.0156 16.8281C34.6719 18.2135 35 19.7083 35 21.3125C35 23.7083 34.2708 25.5469 32.8125 26.8281C31.3542 28.1094 29.5833 28.75 27.5 28.75H25.1875C25 28.75 24.8698 28.8021 24.7969 28.9062C24.724 29.0104 24.6875 29.125 24.6875 29.25C24.6875 29.5 24.8438 29.8594 25.1562 30.3281C25.4688 30.7969 25.625 31.3333 25.625 31.9375C25.625 32.9792 25.3385 33.75 24.7656 34.25C24.1927 34.75 23.4375 35 22.5 35V35M22.5 22.5V22.5V22.5V22.5V22.5V22.5V22.5V22.5V22.5V22.5V22.5V22.5V22.5V22.5V22.5V22.5V22.5M15.625 23.75C16.1667 23.75 16.6146 23.5729 16.9688 23.2188C17.3229 22.8646 17.5 22.4167 17.5 21.875C17.5 21.3333 17.3229 20.8854 16.9688 20.5312C16.6146 20.1771 16.1667 20 15.625 20C15.0833 20 14.6354 20.1771 14.2812 20.5312C13.9271 20.8854 13.75 21.3333 13.75 21.875C13.75 22.4167 13.9271 22.8646 14.2812 23.2188C14.6354 23.5729 15.0833 23.75 15.625 23.75V23.75M19.375 18.75C19.9167 18.75 20.3646 18.5729 20.7188 18.2188C21.0729 17.8646 21.25 17.4167 21.25 16.875C21.25 16.3333 21.0729 15.8854 20.7188 15.5312C20.3646 15.1771 19.9167 15 19.375 15C18.8333 15 18.3854 15.1771 18.0312 15.5312C17.6771 15.8854 17.5 16.3333 17.5 16.875C17.5 17.4167 17.6771 17.8646 18.0312 18.2188C18.3854 18.5729 18.8333 18.75 19.375 18.75V18.75M25.625 18.75C26.1667 18.75 26.6146 18.5729 26.9688 18.2188C27.3229 17.8646 27.5 17.4167 27.5 16.875C27.5 16.3333 27.3229 15.8854 26.9688 15.5312C26.6146 15.1771 26.1667 15 25.625 15C25.0833 15 24.6354 15.1771 24.2812 15.5312C23.9271 15.8854 23.75 16.3333 23.75 16.875C23.75 17.4167 23.9271 17.8646 24.2812 18.2188C24.6354 18.5729 25.0833 18.75 25.625 18.75V18.75M29.375 23.75C29.9167 23.75 30.3646 23.5729 30.7188 23.2188C31.0729 22.8646 31.25 22.4167 31.25 21.875C31.25 21.3333 31.0729 20.8854 30.7188 20.5312C30.3646 20.1771 29.9167 20 29.375 20C28.8333 20 28.3854 20.1771 28.0312 20.5312C27.6771 20.8854 27.5 21.3333 27.5 21.875C27.5 22.4167 27.6771 22.8646 28.0312 23.2188C28.3854 23.5729 28.8333 23.75 29.375 23.75V23.75M22.5 32.5C22.6875 32.5 22.8385 32.4479 22.9531 32.3438C23.0677 32.2396 23.125 32.1042 23.125 31.9375C23.125 31.6458 22.9688 31.3021 22.6562 30.9062C22.3438 30.5104 22.1875 29.9167 22.1875 29.125C22.1875 28.25 22.4896 27.5521 23.0938 27.0312C23.6979 26.5104 24.4375 26.25 25.3125 26.25H27.5C28.875 26.25 30.0521 25.849 31.0312 25.0469C32.0104 24.2448 32.5 23 32.5 21.3125C32.5 18.7917 31.5365 16.6927 29.6094 15.0156C27.6823 13.3385 25.3958 12.5 22.75 12.5C19.9167 12.5 17.5 13.4688 15.5 15.4062C13.5 17.3438 12.5 19.7083 12.5 22.5C12.5 25.2708 13.474 27.6302 15.4219 29.5781C17.3698 31.526 19.7292 32.5 22.5 32.5V32.5" fill="#618CDB"/>
</svg>
