<svg width="60" height="60" viewBox="0 0 60 60" fill="none" xmlns="http://www.w3.org/2000/svg">
<g clip-path="url(#clip0_2137_78)">
<path d="M60 0H0V60H60V0Z" fill="white"/>
<path d="M51.6733 34.1469C52.5296 33.2911 53.972 33.3404 54.4396 34.4571C54.8003 35.3189 54.9998 36.2651 54.9998 37.2581V44.2524C54.9998 45.7284 54.9998 47.0016 54.9045 48.0461C54.8038 49.1509 54.5805 50.2444 53.9815 51.2734C53.3283 52.3954 52.3951 53.3289 51.2728 53.9821C50.2438 54.5811 49.1503 54.8044 48.0456 54.9051C47.0011 55.0004 45.728 55.0004 44.252 55.0001H33.2253C32.4033 55.0001 31.9458 53.8744 32.5271 53.2931L51.6733 34.1469Z" fill="#448EF3"/>
<path d="M32.3916 12.5001C32.3006 11.3047 32.6613 10.0771 33.5806 9.30732C33.7808 9.13957 33.9778 8.98134 34.1716 8.83349C35.4861 7.83049 36.9483 7.07104 38.7501 7.07104C40.5521 7.07104 42.0143 7.83049 43.3288 8.83349C44.5556 9.76937 45.9056 11.1197 47.4726 12.6869L49.8133 15.0275C51.3806 16.5945 52.7308 17.9447 53.6666 19.1713C54.6696 20.4859 55.4291 21.948 55.4291 23.75C55.4291 25.5519 54.6696 27.0141 53.6666 28.3286C52.7308 29.5554 51.3806 30.9054 49.8133 32.4724L33.9811 48.3046C33.4203 48.8654 32.3313 48.2909 32.3916 47.5001C32.5008 46.0629 32.5008 44.4481 32.5006 42.7969V34.2571C32.5003 28.6164 32.5003 22.976 32.5006 17.3355V17.2031C32.5008 15.5519 32.5008 13.9374 32.3916 12.5001Z" fill="#448EF3"/>
<path fill-rule="evenodd" clip-rule="evenodd" d="M30 17.3356C29.9995 25.7786 30 34.2216 30 42.6646C30.0003 44.8809 30.0003 46.7904 29.7948 48.3196C29.5743 49.9584 29.0775 51.5294 27.8033 52.8034C26.5293 54.0776 24.9583 54.5744 23.3195 54.7949C21.3971 55.0534 19.4349 55.0001 17.5 55.0001C15.5651 55.0001 13.603 55.0534 11.6805 54.7949C10.0418 54.5744 8.47088 54.0776 7.19671 52.8034C5.92256 51.5294 5.42571 49.9584 5.20536 48.3196C4.99978 46.7904 4.99988 44.8809 5.00001 42.6646V17.3356C4.99988 15.1193 4.99978 13.2098 5.20538 11.6807C5.42571 10.0419 5.92256 8.47099 7.19671 7.19684C8.47088 5.92269 10.0418 5.42582 11.6805 5.20549C13.2474 4.99484 15.2136 5.00014 17.5 5.00014C19.4282 5.00014 21.4059 4.94822 23.3195 5.20549C24.9583 5.42582 26.5293 5.92269 27.8033 7.19684C29.0775 8.47099 29.5743 10.0419 29.7948 11.6807C30.0003 13.2098 30.0003 15.1193 30 17.3356ZM17.5 45.0251C16.1193 45.0251 15 43.9059 15 42.5251V42.5001C15 41.1194 16.1193 40.0001 17.5 40.0001C18.8807 40.0001 20 41.1194 20 42.5001V42.5251C20 43.9059 18.8807 45.0251 17.5 45.0251Z" fill="#448EF3"/>
</g>
<defs>
<clipPath id="clip0_2137_78">
<rect width="60" height="60" fill="white"/>
</clipPath>
</defs>
</svg>
