<svg width="50" height="50" viewBox="0 0 50 50" fill="none" xmlns="http://www.w3.org/2000/svg">
<g clip-path="url(#clip0_2320_110)">
<path d="M46.0143 17.5753V15.7214C46.0143 13.5941 44.2899 11.853 42.1636 11.853H39.1077C36.9814 11.853 35.257 13.5941 35.257 15.7214V20.9158H14.7419V15.7214C14.7419 13.5941 13.0174 11.853 10.8912 11.853H7.83526C5.70904 11.853 3.98459 13.5941 3.98459 15.7214V17.5753C1.79417 17.5753 0 19.3651 0 21.5743V28.4057C0 30.6149 1.89268 32.4047 3.98459 32.4047V34.2575C3.98459 36.3848 5.70904 38.1458 7.83526 38.1458H10.8912C13.0174 38.1458 14.7419 36.3848 14.7419 34.2575V29.082H35.2581V34.2575C35.2581 36.3848 36.9826 38.1458 39.1088 38.1458H42.1658C44.291 38.1458 46.0165 36.3848 46.0165 34.2575V32.4047C48.2069 32.4047 50.0011 30.6127 50.0011 28.4057V21.5743C49.9978 19.3651 48.1051 17.5753 46.0143 17.5753Z" fill="#448EF3"/>
</g>
<defs>
<clipPath id="clip0_2320_110">
<rect width="50" height="50" fill="white"/>
</clipPath>
</defs>
</svg>
