<svg width="48" height="48" viewBox="0 0 48 48" fill="none" xmlns="http://www.w3.org/2000/svg">
<path d="M23.75 26.25L21.25 23.75L23.75 21.25L26.25 23.75L23.75 26.25V26.25M21.0938 18.9062L17.9688 15.7812L23.75 10L29.5312 15.7812L26.4062 18.9062L23.75 16.25L21.0938 18.9062V18.9062M15.7812 29.5312L10 23.75L15.7812 17.9688L18.9062 21.0938L16.25 23.75L18.9062 26.4062L15.7812 29.5312V29.5312M31.7188 29.5312L28.5938 26.4062L31.25 23.75L28.5938 21.0938L31.7188 17.9688L37.5 23.75L31.7188 29.5312V29.5312M23.75 37.5L17.9688 31.7188L21.0938 28.5938L23.75 31.25L26.4062 28.5938L29.5312 31.7188L23.75 37.5V37.5" fill="#618CDB"/>
</svg>
