<svg width="50" height="50" viewBox="0 0 50 50" fill="none" xmlns="http://www.w3.org/2000/svg">
<path d="M12.5002 22.9167H20.8335M16.6669 18.75V27.0834M31.2501 25H31.271M37.5001 20.8334H37.5209M21.7689 10.4167H28.2316C33.7001 10.4167 36.4343 10.4167 38.5805 11.453C40.4701 12.3654 42.0401 13.8273 43.0849 15.6471C44.2714 17.714 44.4662 20.4413 44.8559 25.8959L45.3684 33.0719C45.6197 36.5904 42.833 39.5834 39.3055 39.5834C37.5016 39.5834 35.7907 38.7821 34.6359 37.3963L33.8543 36.4584C33.1395 35.6004 32.782 35.1715 32.3749 34.8248C31.5218 34.0984 30.4887 33.6144 29.3843 33.4242C28.8574 33.3334 28.2991 33.3334 27.1824 33.3334H22.818C21.7014 33.3334 21.143 33.3334 20.6161 33.4242C19.5116 33.6144 18.4787 34.0984 17.6254 34.8248C17.2184 35.1715 16.8609 35.6004 16.146 36.4584L15.3644 37.3963C14.2096 38.7821 12.4988 39.5834 10.6949 39.5834C7.16735 39.5834 4.38064 36.5904 4.63197 33.0719L5.14453 25.8959C5.53416 20.4413 5.72895 17.714 6.91555 15.6471C7.96028 13.8273 9.53028 12.3654 11.4199 11.453C13.5661 10.4167 16.3003 10.4167 21.7689 10.4167Z" stroke="#448EF3" stroke-width="4" stroke-linecap="round" stroke-linejoin="round"/>
</svg>
