<svg width="50" height="46" viewBox="0 0 50 46" fill="none" xmlns="http://www.w3.org/2000/svg">
<path d="M35.1666 21.1098L36.1583 20.1072C36.1583 20.1072 37.6827 18.7981 39.4207 19.3916C42.4464 20.4246 45.9422 19.3062 48.3668 16.8785C49.0566 16.1888 49.8943 14.8049 49.8943 14.8049C49.9904 14.6736 50.024 14.5073 49.9843 14.3486L49.7966 13.5766C49.7616 13.4316 49.6684 13.308 49.5403 13.2317C49.4121 13.1569 49.258 13.1371 49.1161 13.1783L43.1606 14.8355C42.9393 14.8965 42.7028 14.8141 42.5685 14.6295L39.8327 10.8606C39.7488 10.7461 39.7136 10.6026 39.7334 10.4638L40.2843 6.45987C40.3133 6.24171 40.469 6.06466 40.6811 6.00518L46.9708 4.25499C47.2545 4.17559 47.427 3.88263 47.3568 3.59425L47.1081 2.58263C47.0745 2.43917 46.983 2.3171 46.8578 2.24083C46.8578 2.24083 46.3649 1.91427 46.0063 1.7297C42.4342 -0.115129 37.936 0.457137 34.9407 3.45391C32.7282 5.66641 31.8615 8.69688 32.2673 11.5746C32.5801 13.7871 32.4336 14.9636 31.4785 15.9737C31.3915 16.0638 31.1168 16.3384 30.6926 16.755L35.1666 21.1098Z" fill="#448EF3"/>
<path d="M20.6431 26.5205C13.9674 32.9887 6.68585 40.0261 6.68585 40.0261C6.43712 40.2642 6.29523 40.5922 6.29064 40.9355C6.28605 41.2773 6.42189 41.6085 6.663 41.8511L9.78195 44.97C10.0261 45.2126 10.3557 45.3469 10.699 45.3424C11.0424 45.3394 11.3689 45.1959 11.6054 44.9487L25.2116 31.1838L20.6431 26.5205Z" fill="#448EF3"/>
<path d="M48.9681 41.7505C49.2106 41.5079 49.3449 41.1783 49.3404 40.835C49.3374 40.4916 49.1939 40.1651 48.9468 39.9271L22.2088 13.9062L17.9165 18.2001L44.0242 44.848C44.2623 45.0968 44.5888 45.2387 44.9321 45.2433C45.2755 45.2479 45.6051 45.112 45.8492 44.8694L48.9681 41.7505Z" fill="#448EF3"/>
<path d="M24.8241 0.856843C21.6045 -0.398918 16.3983 -0.580559 13.3831 2.43311C11.0088 4.80743 7.53596 8.28184 7.53596 8.28184C6.29846 9.51778 7.44749 10.7446 6.53342 11.6571C5.61946 12.5711 4.15911 11.6571 3.33674 12.4796L0.321606 15.4961C-0.107202 15.9233 -0.107202 16.6191 0.321606 17.048L4.52239 21.2487C4.9512 21.6775 5.647 21.6775 6.07571 21.2487L9.09084 18.2336C9.91487 17.4111 8.99924 15.9509 9.91487 15.0384C11.1462 13.8055 12.4906 14.0146 13.2672 14.7897L14.8191 16.3415L16.5006 16.784L20.7929 12.4917L20.2985 10.862C18.9297 9.4918 18.7344 7.90635 19.592 7.04884C20.9196 5.7213 23.1122 3.80333 25.166 2.98087C26.4751 2.45753 26.0799 1.1544 24.8241 0.856843ZM19.0014 7.77667C18.9952 7.78126 19.5736 7.06563 19.5843 7.05645L19.0014 7.77667Z" fill="#448EF3"/>
</svg>
