<svg width="50" height="50" viewBox="0 0 50 50" fill="none" xmlns="http://www.w3.org/2000/svg">
<path d="M16.6376 40.2094C16.3937 39.7599 16.3073 39.2418 16.3923 38.7375H6.01102L21.4313 11.5891L27.9298 23.1672L29.9735 21.6422L23.5563 10.1047C23.3417 9.71024 23.0333 9.37465 22.6584 9.12751C22.2834 8.88037 21.8535 8.72926 21.4063 8.6875C20.9561 8.70607 20.5202 8.85144 20.149 9.10686C19.7777 9.36229 19.4862 9.71738 19.3079 10.1313L3.6829 37.6203C3.44524 38.0057 3.30824 38.4446 3.28448 38.8967C3.26073 39.3488 3.35099 39.7997 3.54696 40.2078C3.78462 40.5865 4.12394 40.8907 4.52621 41.0857C4.92847 41.2808 5.37747 41.3588 5.82196 41.3109H18.9063C18.4627 41.3603 18.0141 41.284 17.6119 41.0906C17.2096 40.8972 16.8698 40.5945 16.6313 40.2172L16.6376 40.2094Z" fill="#00C58E"/>
<path d="M46.3062 37.675L33.7327 15.3484C33.5283 14.9538 33.2278 14.6171 32.8588 14.3694C32.4898 14.1217 32.0644 13.971 31.6218 13.9312C31.1819 13.9499 30.7564 14.093 30.3946 14.3438C30.0329 14.5947 29.7497 14.943 29.578 15.3484L27.9155 18.0047V23.1609L31.6202 16.8L44.0437 38.7859H39.3171C39.3923 39.2311 39.3256 39.6886 39.1265 40.0937L39.0858 40.175C38.8299 40.538 38.4884 40.8322 38.0915 41.0317C37.6947 41.2312 37.2548 41.3298 36.8108 41.3187H44.2077C44.6519 41.331 45.0922 41.233 45.4893 41.0334C45.8863 40.8338 46.2276 40.5389 46.4827 40.175C46.6824 39.7806 46.7702 39.3391 46.7366 38.8984C46.703 38.4576 46.5493 38.0345 46.2921 37.675H46.3062Z" fill="#108775"/>
<path d="M39.4264 40.1563L39.467 40.075L39.5764 39.8578C39.7098 39.5093 39.7428 39.1304 39.6717 38.7641C39.6019 38.3642 39.4589 37.9807 39.2499 37.6328L29.428 20.6016L27.9436 18.0141H27.917L26.4186 20.5891L16.6108 37.6203C16.4197 37.9677 16.2906 38.3458 16.2295 38.7375C16.137 39.2402 16.2185 39.7593 16.4608 40.2094C16.7077 40.5882 17.0549 40.891 17.4637 41.0841C17.8726 41.2772 18.327 41.3531 18.7764 41.3031H37.0702C37.5277 41.3177 37.9818 41.2197 38.3926 41.0179C38.8034 40.816 39.1584 40.5164 39.4264 40.1453V40.1563ZM27.9155 23.1813L36.9061 38.75H18.9249L27.9155 23.1813Z" fill="#2F495E"/>
</svg>
