<svg width="50" height="50" viewBox="0 0 50 50" fill="none" xmlns="http://www.w3.org/2000/svg">
<g clip-path="url(#clip0_2279_340)">
<path d="M22.0319 49.968C17.3516 49.6307 12.7258 48.4526 9.88884 46.8755C8.27289 45.9772 7.04177 44.8732 6.55867 43.8893L6.27124 43.3038V24.9409V6.57801L6.49868 6.11619C7.51509 4.05262 10.7589 2.19229 15.2871 1.07608C16.8242 0.697151 19.0432 0.319797 20.8535 0.129511C22.7021 -0.0648461 27.6019 -0.0352761 29.4458 0.181653C34.3467 0.757438 38.517 2.04648 41.087 3.77998C42.0782 4.44848 43.0952 5.51815 43.4397 6.25443L43.7351 6.88571L43.7098 25.1931L43.6845 43.5005L43.4474 43.9823C43.317 44.2472 42.9231 44.7685 42.572 45.1405C40.435 47.4059 35.8512 49.0817 29.8387 49.7957C28.6132 49.9413 23.2892 50.0587 22.0319 49.968ZM30.6569 34.2335C30.6389 34.1865 29.9393 33.5633 29.1021 32.8483C28.265 32.1334 27.544 31.5148 27.4999 31.4738C27.4559 31.4327 27.6105 31.2873 27.8436 31.1507C28.0767 31.014 28.5233 30.6339 28.8361 30.3059C29.7508 29.3468 30.1823 28.1621 30.1823 26.6103C30.1823 25.0826 29.7169 23.8499 28.7847 22.909C27.8451 21.9606 26.7664 21.5531 25.1955 21.5531C22.774 21.5531 20.9143 22.966 20.3207 25.2567C20.1165 26.0447 20.1176 27.6368 20.3228 28.3354C20.8581 30.1578 22.316 31.4814 24.1304 31.7922C24.7444 31.8974 24.8276 31.9427 25.2462 32.4004C25.495 32.6724 26.0055 33.2153 26.3807 33.6068L27.0628 34.3187H28.8763C29.8736 34.3187 30.6749 34.2804 30.6569 34.2335ZM24.438 29.156C24.0014 28.9284 23.8364 28.7517 23.5874 28.2456C23.3951 27.8547 23.3622 27.6324 23.3601 26.7085C23.3579 25.7697 23.3878 25.5668 23.5886 25.1592C23.917 24.4921 24.3697 24.1763 25.0699 24.1257C26.0446 24.055 26.6072 24.5334 26.902 25.6829C27.2636 27.0924 26.866 28.5908 25.9986 29.0881C25.5436 29.349 24.8648 29.3786 24.438 29.156ZM16.4 31.7722C18.3013 31.4116 19.3806 30.3059 19.3806 28.7187C19.3806 27.3106 18.6838 26.4901 16.758 25.6303C15.6556 25.1382 15.2563 24.8293 15.2563 24.4684C15.2563 24.1692 15.6352 23.8414 16.0764 23.7591C16.5071 23.6786 17.6495 23.877 18.3241 24.1495L18.8896 24.378V23.1263V21.8745L18.2759 21.7384C17.8965 21.6542 17.0995 21.6037 16.1891 21.6063C14.8997 21.6063 14.6472 21.6377 14.1619 21.8304C12.7444 22.3931 12.0718 23.3517 12.0826 24.7936C12.0926 26.1435 12.8048 26.9855 14.577 27.743C15.6227 28.1899 16.0419 28.5303 16.0419 28.9324C16.0419 29.7871 14.6179 29.8923 13.1102 29.149C12.6973 28.9454 12.3263 28.7623 12.2858 28.742C12.2453 28.7217 12.2122 29.3064 12.2122 30.0414C12.2122 31.3717 12.2136 31.3781 12.4545 31.4698C13.3614 31.8146 15.3661 31.9683 16.4 31.7722ZM38.1363 30.5381V29.4089H36.4179H34.6994V25.5301V21.6513H33.1773H31.6553V26.6594V31.6674H34.8958H38.1363V30.5381ZM27.531 10.7488C30.5556 10.5391 32.8228 10.143 34.8179 9.47591C36.8055 8.81134 37.9797 8.00721 38.2423 7.13064C38.3435 6.79285 38.3363 6.66472 38.1949 6.29437C37.5607 4.63401 34.0185 3.35834 28.6056 2.84113C26.2902 2.61984 22.0794 2.69158 19.8717 2.98979C16.5031 3.44494 13.7693 4.29035 12.5538 5.25285C10.0948 7.19999 12.6952 9.34159 18.7423 10.3496C21.3644 10.7867 24.7614 10.941 27.531 10.7488Z" fill="#00BCF2"/>
</g>
<defs>
<clipPath id="clip0_2279_340">
<rect width="50" height="50" fill="white"/>
</clipPath>
</defs>
</svg>
