<svg width="50" height="50" viewBox="0 0 50 50" fill="none" xmlns="http://www.w3.org/2000/svg">
<path d="M12.5 20C14.1667 13.3333 18.3333 10 25 10C35 10 36.25 17.5 41.25 18.75C44.5833 19.5833 47.5 18.3333 50 15C48.3333 21.6667 44.1667 25 37.5 25C27.5 25 26.25 17.5 21.25 16.25C17.9167 15.4167 15 16.6667 12.5 20ZM0 35C1.66667 28.3333 5.83333 25 12.5 25C22.5 25 23.75 32.5 28.75 33.75C32.0833 34.5833 35 33.3333 37.5 30C35.8333 36.6667 31.6667 40 25 40C15 40 13.75 32.5 8.75 31.25C5.41667 30.4167 2.5 31.6667 0 35Z" fill="#44A8B3"/>
</svg>
