<svg width="none" height="none" viewBox="0 0 50 51" fill="none" xmlns="http://www.w3.org/2000/svg">
<path d="M13.2046 31.788C13.4488 29.7663 14.278 28.6344 15.8405 27.4741C18.0763 25.9026 20.8689 26.7915 20.8689 26.7915V21.5179C21.548 21.5004 22.2272 21.5407 22.8986 21.638V28.4247C22.8986 28.4247 20.1067 27.5358 17.8711 29.1082C16.3094 30.2677 15.4785 31.4005 15.2352 33.4222C15.2275 34.5201 15.4336 35.955 16.3823 37.1958C16.1477 37.0755 15.9086 36.9385 15.665 36.7847C13.5751 35.3813 13.1944 33.276 13.2046 31.788ZM34.43 11.7667C32.892 10.0814 32.3103 8.37988 32.1002 7.18457H34.0349C34.0349 7.18457 33.6491 10.3187 36.4605 13.4009L36.4995 13.4423C35.7417 12.9657 35.0469 12.4031 34.43 11.7667ZM43.75 16.5447V23.1949C43.75 23.1949 41.2813 23.0983 39.4542 22.6335C36.903 21.9833 35.2633 20.9863 35.2633 20.9863C35.2633 20.9863 34.1306 20.2754 34.0391 20.2258V33.9585C34.0391 34.7232 33.8297 36.6327 33.1913 38.2254C32.3578 40.309 31.0717 41.6765 30.8352 41.956C30.8352 41.956 29.2709 43.8046 26.5113 45.0496C24.0238 46.1726 21.8397 46.1441 21.1869 46.1726C21.1869 46.1726 17.4116 46.3221 14.0143 44.1143C13.2797 43.6276 12.5939 43.0765 11.9659 42.4679L11.9829 42.4801C15.381 44.6879 19.1555 44.5383 19.1555 44.5383C19.8092 44.5099 21.9931 44.5383 24.4798 43.4154C27.237 42.1705 28.8038 40.3219 28.8038 40.3219C29.0378 40.0424 30.3299 38.6747 31.1599 36.5905C31.7966 34.9986 32.0077 33.0882 32.0077 32.3236V18.5926C32.0992 18.6429 33.2311 19.3538 33.2311 19.3538C33.2311 19.3538 34.8717 20.3518 37.4228 21.001C39.2506 21.4658 41.7188 21.5626 41.7188 21.5626V16.3514C42.5631 16.5407 43.283 16.5919 43.75 16.5447Z" fill="#EE1D52"/>
<path d="M41.7202 16.3514V21.5608C41.7202 21.5608 39.252 21.4641 37.4242 20.9994C34.8731 20.3493 33.2325 19.3522 33.2325 19.3522C33.2325 19.3522 32.1006 18.6413 32.0091 18.5908V32.3252C32.0091 33.0899 31.7997 35.0002 31.1612 36.5921C30.3278 38.6765 29.0417 40.044 28.8052 40.3235C28.8052 40.3235 27.2402 42.1721 24.4812 43.4171C21.9945 44.5401 19.8106 44.5116 19.1569 44.5401C19.1569 44.5401 15.3824 44.6896 11.9843 42.4818L11.9673 42.4696C11.6086 42.1221 11.2709 41.7554 10.9559 41.371C9.87151 40.0488 9.20682 38.4854 9.03979 38.0393V38.0336C8.77104 37.2585 8.20639 35.3968 8.28354 33.5936C8.42004 30.4124 9.53917 28.4597 9.83506 27.9705C10.6187 26.6366 11.6379 25.443 12.8474 24.4432C13.9147 23.5802 15.1244 22.8936 16.4269 22.4116C17.835 21.8457 19.3428 21.5422 20.8695 21.5179V26.7915C20.8695 26.7915 18.0767 25.9058 15.8419 27.4741C14.2794 28.6344 13.4502 29.7663 13.206 31.788C13.1958 33.276 13.5765 35.3813 15.6647 36.7855C15.9083 36.9399 16.1473 37.0769 16.382 37.1966C16.7467 37.6708 17.1908 38.0841 17.6961 38.4196C19.7359 39.7108 21.4452 39.801 23.6309 38.9624C25.0883 38.4018 26.1853 37.1382 26.6941 35.738C27.0137 34.8638 27.0095 33.9836 27.0095 33.0736V7.18457H32.0964C32.3067 8.37988 32.8883 10.0814 34.4263 11.7667C35.0431 12.4031 35.7381 12.9657 36.4958 13.4423C36.7197 13.6739 37.8642 14.8188 39.3334 15.5217C40.0931 15.885 40.8941 16.1634 41.7202 16.3514Z" fill="black"/>
<path d="M7.01447 36.4199V36.424L7.14068 36.7662C7.12618 36.7263 7.07928 36.6052 7.01447 36.4199Z" fill="#69C9D0"/>
<path d="M16.4263 22.4117C15.1237 22.8939 13.914 23.5805 12.8468 24.4433C11.6369 25.4455 10.6179 26.6416 9.83529 27.978C9.53939 28.4656 8.42027 30.4199 8.28377 33.6011C8.20661 35.4042 8.77127 37.266 9.04002 38.0411V38.0467C9.20958 38.4889 9.87174 40.0522 10.9561 41.3785C11.2711 41.7628 11.6088 42.1297 11.9676 42.477C10.8181 41.715 9.79291 40.7939 8.92557 39.7435C7.85052 38.4328 7.18752 36.8856 7.01457 36.4289C7.01436 36.4256 7.01436 36.4224 7.01457 36.4192V36.4135C6.74496 35.6391 6.17861 33.7766 6.25746 31.9711C6.39396 28.7899 7.5131 26.8372 7.80899 26.348C8.59141 25.0113 9.61043 23.8152 10.8205 22.8133C11.8875 21.95 13.0973 21.2635 14.4 20.7817C15.2125 20.4586 16.0591 20.2203 16.9248 20.0708C18.2295 19.8525 19.5622 19.8335 20.8731 20.0147V21.518C19.345 21.5419 17.8356 21.8453 16.4263 22.4117Z" fill="#69C9D0"/>
<path d="M32.0997 7.18473H27.0126V33.0746C27.0126 33.9847 27.0126 34.8623 26.6973 35.739C26.1836 37.1384 25.0906 38.4018 23.6341 38.9626C21.4476 39.8045 19.7384 39.7111 17.6994 38.4198C17.1931 38.0857 16.748 37.6739 16.3819 37.2009C18.1191 38.089 19.6739 38.0736 21.6001 37.3326C23.0559 36.7718 24.1505 35.5082 24.6625 34.1082C24.983 33.2339 24.9787 32.3539 24.9787 31.4445V5.5498H32.003C32.003 5.5498 31.9242 6.19337 32.0997 7.18473ZM41.7191 14.9108V16.3515C40.8945 16.1633 40.0951 15.8849 39.3367 15.5219C37.8675 14.819 36.7228 13.6741 36.4991 13.4425C36.7587 13.6059 37.0283 13.7546 37.3061 13.8878C39.0925 14.7426 40.8517 14.9978 41.7191 14.9108Z" fill="#69C9D0"/>
</svg>
