<svg width="50" height="50" viewBox="0 0 50 50" fill="none" xmlns="http://www.w3.org/2000/svg">
<g clip-path="url(#clip0_2137_101)">
<path d="M45.3125 0H4.6875C2.09883 0 0 2.09883 0 4.6875V45.3125C0 47.9012 2.09883 50 4.6875 50H45.3125C47.9012 50 50 47.9012 50 45.3125V4.6875C50 2.09883 47.9012 0 45.3125 0ZM43.4242 3.41797C44.4488 3.41797 45.2797 4.24883 45.2797 5.27344C45.2797 6.29805 44.4488 7.12891 43.4242 7.12891C42.3996 7.12891 41.5687 6.29805 41.5687 5.27344C41.5687 4.24883 42.3996 3.41797 43.4242 3.41797ZM36.5395 3.41797C37.5641 3.41797 38.3949 4.24883 38.3949 5.27344C38.3949 6.29805 37.5641 7.12891 36.5395 7.12891C35.5148 7.12891 34.684 6.29805 34.684 5.27344C34.684 4.24883 35.5148 3.41797 36.5395 3.41797ZM29.6547 3.41797C30.6793 3.41797 31.5102 4.24883 31.5102 5.27344C31.5102 6.29805 30.6793 7.12891 29.6547 7.12891C28.6301 7.12891 27.7992 6.29805 27.7992 5.27344C27.7992 4.24883 28.6301 3.41797 29.6547 3.41797ZM46.0938 45.3125C46.0938 45.7428 45.7436 46.0938 45.3125 46.0938H4.6875C4.25645 46.0938 3.90625 45.7428 3.90625 45.3125V10.1562H46.0938V45.3125Z" fill="#448EF3"/>
<path d="M24.2188 18.75H9.375V21.875H24.2188V18.75Z" fill="#448EF3"/>
<path d="M41.4062 34.375H9.375V37.5H41.4062V34.375Z" fill="#448EF3"/>
<path d="M41.4062 18.75H29.6875V30.4688H41.4062V18.75Z" fill="#448EF3"/>
<path d="M22.3674 29.6875H24.2188V26.5625H9.375V29.6875H20.8049H22.3674Z" fill="#448EF3"/>
</g>
<defs>
<clipPath id="clip0_2137_101">
<rect width="50" height="50" fill="white"/>
</clipPath>
</defs>
</svg>
